<mxfile host="app.diagrams.net" modified="2023-10-26T04:00:47.108Z" agent="Mozilla/5.0 (Windows NT 10.0; Win64; x64) AppleWebKit/537.36 (KHTML, like Gecko) Chrome/118.0.0.0 Safari/537.36" etag="zzFYnaBYiylo75Ejx0zw" version="22.0.8" type="google">
  <diagram name="Page-1" id="O5hiSzr-DYO1XyFt8tw_">
    <mxGraphModel grid="1" page="1" gridSize="10" guides="1" tooltips="1" connect="1" arrows="1" fold="1" pageScale="1" pageWidth="827" pageHeight="1169" math="0" shadow="0">
      <root>
        <mxCell id="0" />
        <mxCell id="1" parent="0" />
        <mxCell id="hgFCw2ghXYzoWtMaDJ9G-1" value="start" style="ellipse;whiteSpace=wrap;html=1;" vertex="1" parent="1">
          <mxGeometry x="300" width="120" height="80" as="geometry" />
        </mxCell>
        <mxCell id="hgFCw2ghXYzoWtMaDJ9G-2" value="" style="endArrow=classic;html=1;rounded=0;" edge="1" parent="1">
          <mxGeometry width="50" height="50" relative="1" as="geometry">
            <mxPoint x="360" y="80" as="sourcePoint" />
            <mxPoint x="360" y="130" as="targetPoint" />
          </mxGeometry>
        </mxCell>
        <mxCell id="hgFCw2ghXYzoWtMaDJ9G-3" value="Declare a,b,c" style="shape=parallelogram;perimeter=parallelogramPerimeter;whiteSpace=wrap;html=1;fixedSize=1;" vertex="1" parent="1">
          <mxGeometry x="300" y="130" width="120" height="60" as="geometry" />
        </mxCell>
        <mxCell id="hgFCw2ghXYzoWtMaDJ9G-4" value="" style="endArrow=classic;html=1;rounded=0;" edge="1" parent="1">
          <mxGeometry width="50" height="50" relative="1" as="geometry">
            <mxPoint x="360" y="190" as="sourcePoint" />
            <mxPoint x="360" y="240" as="targetPoint" />
          </mxGeometry>
        </mxCell>
        <mxCell id="hgFCw2ghXYzoWtMaDJ9G-5" value="initialize&lt;br&gt;a,b,c values" style="shape=parallelogram;perimeter=parallelogramPerimeter;whiteSpace=wrap;html=1;fixedSize=1;" vertex="1" parent="1">
          <mxGeometry x="300" y="240" width="120" height="60" as="geometry" />
        </mxCell>
        <mxCell id="hgFCw2ghXYzoWtMaDJ9G-6" value="" style="endArrow=classic;html=1;rounded=0;" edge="1" parent="1">
          <mxGeometry width="50" height="50" relative="1" as="geometry">
            <mxPoint x="360" y="300" as="sourcePoint" />
            <mxPoint x="360" y="340" as="targetPoint" />
          </mxGeometry>
        </mxCell>
        <mxCell id="hgFCw2ghXYzoWtMaDJ9G-8" value="(a&amp;gt;b)&amp;amp;&amp;amp;(a&amp;gt;c)" style="rhombus;whiteSpace=wrap;html=1;" vertex="1" parent="1">
          <mxGeometry x="310" y="340" width="100" height="90" as="geometry" />
        </mxCell>
        <mxCell id="hgFCw2ghXYzoWtMaDJ9G-12" value="" style="endArrow=classic;html=1;rounded=0;" edge="1" parent="1">
          <mxGeometry width="50" height="50" relative="1" as="geometry">
            <mxPoint x="360" y="430" as="sourcePoint" />
            <mxPoint x="360" y="470" as="targetPoint" />
          </mxGeometry>
        </mxCell>
        <mxCell id="hgFCw2ghXYzoWtMaDJ9G-14" value="a is Maximum" style="shape=parallelogram;perimeter=parallelogramPerimeter;whiteSpace=wrap;html=1;fixedSize=1;" vertex="1" parent="1">
          <mxGeometry x="300" y="470" width="120" height="60" as="geometry" />
        </mxCell>
        <mxCell id="hgFCw2ghXYzoWtMaDJ9G-15" value="" style="endArrow=classic;html=1;rounded=0;exitX=0.5;exitY=1;exitDx=0;exitDy=0;entryX=1.025;entryY=1.067;entryDx=0;entryDy=0;entryPerimeter=0;" edge="1" parent="1" source="hgFCw2ghXYzoWtMaDJ9G-14">
          <mxGeometry width="50" height="50" relative="1" as="geometry">
            <mxPoint x="350" y="650" as="sourcePoint" />
            <mxPoint x="361" y="580.01" as="targetPoint" />
          </mxGeometry>
        </mxCell>
        <mxCell id="0Qy8tqoMtrZZk6D1xudQ-2" value="" style="endArrow=classic;html=1;rounded=0;exitX=1;exitY=0.5;exitDx=0;exitDy=0;" edge="1" parent="1" source="hgFCw2ghXYzoWtMaDJ9G-8">
          <mxGeometry width="50" height="50" relative="1" as="geometry">
            <mxPoint x="410" y="390" as="sourcePoint" />
            <mxPoint x="530" y="385" as="targetPoint" />
          </mxGeometry>
        </mxCell>
        <mxCell id="0Qy8tqoMtrZZk6D1xudQ-3" value="(b&amp;gt;a)&amp;amp;&amp;amp;(b&amp;gt;c)" style="rhombus;whiteSpace=wrap;html=1;" vertex="1" parent="1">
          <mxGeometry x="530" y="342.5" width="90" height="85" as="geometry" />
        </mxCell>
        <mxCell id="0Qy8tqoMtrZZk6D1xudQ-4" value="false" style="text;html=1;align=center;verticalAlign=middle;resizable=0;points=[];autosize=1;strokeColor=none;fillColor=none;" vertex="1" parent="1">
          <mxGeometry x="435" y="358" width="50" height="30" as="geometry" />
        </mxCell>
        <mxCell id="0Qy8tqoMtrZZk6D1xudQ-5" value="true" style="text;html=1;align=center;verticalAlign=middle;resizable=0;points=[];autosize=1;strokeColor=none;fillColor=none;" vertex="1" parent="1">
          <mxGeometry x="360" y="430" width="40" height="30" as="geometry" />
        </mxCell>
        <mxCell id="0Qy8tqoMtrZZk6D1xudQ-6" value="" style="endArrow=classic;html=1;rounded=0;exitX=0.5;exitY=1;exitDx=0;exitDy=0;" edge="1" parent="1" source="0Qy8tqoMtrZZk6D1xudQ-3">
          <mxGeometry width="50" height="50" relative="1" as="geometry">
            <mxPoint x="560" y="530" as="sourcePoint" />
            <mxPoint x="575" y="470" as="targetPoint" />
          </mxGeometry>
        </mxCell>
        <mxCell id="0Qy8tqoMtrZZk6D1xudQ-7" value="b is Maximum" style="shape=parallelogram;perimeter=parallelogramPerimeter;whiteSpace=wrap;html=1;fixedSize=1;" vertex="1" parent="1">
          <mxGeometry x="510" y="470" width="120" height="60" as="geometry" />
        </mxCell>
        <mxCell id="0Qy8tqoMtrZZk6D1xudQ-8" value="true" style="text;html=1;align=center;verticalAlign=middle;resizable=0;points=[];autosize=1;strokeColor=none;fillColor=none;" vertex="1" parent="1">
          <mxGeometry x="585" y="430" width="40" height="30" as="geometry" />
        </mxCell>
        <mxCell id="0Qy8tqoMtrZZk6D1xudQ-9" value="" style="endArrow=classic;html=1;rounded=0;exitX=1;exitY=0.5;exitDx=0;exitDy=0;" edge="1" parent="1" source="0Qy8tqoMtrZZk6D1xudQ-3">
          <mxGeometry width="50" height="50" relative="1" as="geometry">
            <mxPoint x="620" y="380" as="sourcePoint" />
            <mxPoint x="730" y="385" as="targetPoint" />
          </mxGeometry>
        </mxCell>
        <mxCell id="0Qy8tqoMtrZZk6D1xudQ-10" value="c is Maximum" style="shape=parallelogram;perimeter=parallelogramPerimeter;whiteSpace=wrap;html=1;fixedSize=1;" vertex="1" parent="1">
          <mxGeometry x="720" y="355" width="120" height="60" as="geometry" />
        </mxCell>
        <mxCell id="0Qy8tqoMtrZZk6D1xudQ-11" value="stop" style="ellipse;whiteSpace=wrap;html=1;" vertex="1" parent="1">
          <mxGeometry x="300" y="580" width="120" height="80" as="geometry" />
        </mxCell>
        <mxCell id="0Qy8tqoMtrZZk6D1xudQ-12" value="Finding the minimum of three values&lt;br&gt;" style="text;html=1;align=center;verticalAlign=middle;resizable=0;points=[];autosize=1;strokeColor=none;fillColor=none;" vertex="1" parent="1">
          <mxGeometry x="290" y="690" width="220" height="30" as="geometry" />
        </mxCell>
        <mxCell id="0Qy8tqoMtrZZk6D1xudQ-13" value="start" style="ellipse;whiteSpace=wrap;html=1;" vertex="1" parent="1">
          <mxGeometry x="320" y="740" width="120" height="80" as="geometry" />
        </mxCell>
        <mxCell id="0Qy8tqoMtrZZk6D1xudQ-14" value="" style="endArrow=classic;html=1;rounded=0;exitX=0.5;exitY=1;exitDx=0;exitDy=0;" edge="1" parent="1" source="0Qy8tqoMtrZZk6D1xudQ-13">
          <mxGeometry width="50" height="50" relative="1" as="geometry">
            <mxPoint x="290" y="970" as="sourcePoint" />
            <mxPoint x="380" y="860" as="targetPoint" />
          </mxGeometry>
        </mxCell>
        <mxCell id="0Qy8tqoMtrZZk6D1xudQ-15" value="Declare a,b,c" style="shape=parallelogram;perimeter=parallelogramPerimeter;whiteSpace=wrap;html=1;fixedSize=1;" vertex="1" parent="1">
          <mxGeometry x="320" y="860" width="120" height="60" as="geometry" />
        </mxCell>
        <mxCell id="0Qy8tqoMtrZZk6D1xudQ-16" value="" style="endArrow=classic;html=1;rounded=0;exitX=0.5;exitY=1;exitDx=0;exitDy=0;" edge="1" parent="1" source="0Qy8tqoMtrZZk6D1xudQ-15">
          <mxGeometry width="50" height="50" relative="1" as="geometry">
            <mxPoint x="40" y="1110" as="sourcePoint" />
            <mxPoint x="380" y="960" as="targetPoint" />
          </mxGeometry>
        </mxCell>
        <mxCell id="0Qy8tqoMtrZZk6D1xudQ-17" value="read a,b,c" style="shape=parallelogram;perimeter=parallelogramPerimeter;whiteSpace=wrap;html=1;fixedSize=1;" vertex="1" parent="1">
          <mxGeometry x="320" y="960" width="120" height="60" as="geometry" />
        </mxCell>
        <mxCell id="0Qy8tqoMtrZZk6D1xudQ-18" value="" style="endArrow=classic;html=1;rounded=0;exitX=0.5;exitY=1;exitDx=0;exitDy=0;" edge="1" parent="1" source="0Qy8tqoMtrZZk6D1xudQ-17">
          <mxGeometry width="50" height="50" relative="1" as="geometry">
            <mxPoint x="190" y="1210" as="sourcePoint" />
            <mxPoint x="380" y="1060" as="targetPoint" />
          </mxGeometry>
        </mxCell>
        <mxCell id="0Qy8tqoMtrZZk6D1xudQ-19" value="(a&amp;lt;b)&amp;amp;&amp;amp;(a&amp;lt;c)" style="rhombus;whiteSpace=wrap;html=1;" vertex="1" parent="1">
          <mxGeometry x="335" y="1060" width="90" height="90" as="geometry" />
        </mxCell>
        <mxCell id="0Qy8tqoMtrZZk6D1xudQ-20" value="" style="endArrow=classic;html=1;rounded=0;exitX=0.5;exitY=1;exitDx=0;exitDy=0;" edge="1" parent="1" source="0Qy8tqoMtrZZk6D1xudQ-19">
          <mxGeometry width="50" height="50" relative="1" as="geometry">
            <mxPoint x="20" y="1290" as="sourcePoint" />
            <mxPoint x="380" y="1190" as="targetPoint" />
          </mxGeometry>
        </mxCell>
        <mxCell id="0Qy8tqoMtrZZk6D1xudQ-21" value="print&lt;br&gt;a is Minimum" style="shape=parallelogram;perimeter=parallelogramPerimeter;whiteSpace=wrap;html=1;fixedSize=1;" vertex="1" parent="1">
          <mxGeometry x="315" y="1190" width="120" height="60" as="geometry" />
        </mxCell>
        <mxCell id="0Qy8tqoMtrZZk6D1xudQ-22" value="" style="endArrow=classic;html=1;rounded=0;exitX=1;exitY=0.5;exitDx=0;exitDy=0;" edge="1" parent="1" source="0Qy8tqoMtrZZk6D1xudQ-19">
          <mxGeometry width="50" height="50" relative="1" as="geometry">
            <mxPoint x="425" y="1100" as="sourcePoint" />
            <mxPoint x="600" y="1105" as="targetPoint" />
          </mxGeometry>
        </mxCell>
        <mxCell id="0Qy8tqoMtrZZk6D1xudQ-24" value="(b&amp;lt;a)&amp;amp;&amp;amp;(b&amp;lt;c)" style="rhombus;whiteSpace=wrap;html=1;" vertex="1" parent="1">
          <mxGeometry x="600" y="1062.5" width="90" height="85" as="geometry" />
        </mxCell>
        <mxCell id="0Qy8tqoMtrZZk6D1xudQ-25" value="" style="endArrow=classic;html=1;rounded=0;exitX=0.5;exitY=1;exitDx=0;exitDy=0;" edge="1" parent="1" source="0Qy8tqoMtrZZk6D1xudQ-24">
          <mxGeometry width="50" height="50" relative="1" as="geometry">
            <mxPoint x="480" y="1290" as="sourcePoint" />
            <mxPoint x="645" y="1190" as="targetPoint" />
          </mxGeometry>
        </mxCell>
        <mxCell id="0Qy8tqoMtrZZk6D1xudQ-26" value="print&lt;br&gt;b is Minimum" style="shape=parallelogram;perimeter=parallelogramPerimeter;whiteSpace=wrap;html=1;fixedSize=1;" vertex="1" parent="1">
          <mxGeometry x="585" y="1190" width="120" height="60" as="geometry" />
        </mxCell>
        <mxCell id="0Qy8tqoMtrZZk6D1xudQ-27" value="" style="endArrow=classic;html=1;rounded=0;exitX=1;exitY=0.5;exitDx=0;exitDy=0;" edge="1" parent="1" source="0Qy8tqoMtrZZk6D1xudQ-24">
          <mxGeometry width="50" height="50" relative="1" as="geometry">
            <mxPoint x="690" y="1110" as="sourcePoint" />
            <mxPoint x="770" y="1105" as="targetPoint" />
          </mxGeometry>
        </mxCell>
        <mxCell id="0Qy8tqoMtrZZk6D1xudQ-28" value="print&lt;br&gt;c is Minimum" style="shape=parallelogram;perimeter=parallelogramPerimeter;whiteSpace=wrap;html=1;fixedSize=1;" vertex="1" parent="1">
          <mxGeometry x="760" y="1075" width="120" height="60" as="geometry" />
        </mxCell>
        <mxCell id="0Qy8tqoMtrZZk6D1xudQ-29" value="" style="endArrow=none;html=1;rounded=0;" edge="1" parent="1">
          <mxGeometry width="50" height="50" relative="1" as="geometry">
            <mxPoint x="580" y="620" as="sourcePoint" />
            <mxPoint x="580" y="530" as="targetPoint" />
          </mxGeometry>
        </mxCell>
        <mxCell id="0Qy8tqoMtrZZk6D1xudQ-30" value="" style="endArrow=classic;html=1;rounded=0;entryX=1;entryY=0.5;entryDx=0;entryDy=0;" edge="1" parent="1" target="0Qy8tqoMtrZZk6D1xudQ-11">
          <mxGeometry width="50" height="50" relative="1" as="geometry">
            <mxPoint x="580" y="620" as="sourcePoint" />
            <mxPoint x="470" y="550" as="targetPoint" />
          </mxGeometry>
        </mxCell>
        <mxCell id="0Qy8tqoMtrZZk6D1xudQ-31" value="" style="endArrow=none;html=1;rounded=0;entryX=0.5;entryY=1;entryDx=0;entryDy=0;" edge="1" parent="1" target="0Qy8tqoMtrZZk6D1xudQ-10">
          <mxGeometry width="50" height="50" relative="1" as="geometry">
            <mxPoint x="780" y="610" as="sourcePoint" />
            <mxPoint x="910" y="570" as="targetPoint" />
          </mxGeometry>
        </mxCell>
        <mxCell id="0Qy8tqoMtrZZk6D1xudQ-32" value="" style="endArrow=classic;html=1;rounded=0;" edge="1" parent="1">
          <mxGeometry width="50" height="50" relative="1" as="geometry">
            <mxPoint x="780" y="610" as="sourcePoint" />
            <mxPoint x="580" y="610" as="targetPoint" />
          </mxGeometry>
        </mxCell>
        <mxCell id="0Qy8tqoMtrZZk6D1xudQ-33" value="" style="endArrow=classic;html=1;rounded=0;exitX=0.45;exitY=1.017;exitDx=0;exitDy=0;exitPerimeter=0;" edge="1" parent="1" source="0Qy8tqoMtrZZk6D1xudQ-21">
          <mxGeometry width="50" height="50" relative="1" as="geometry">
            <mxPoint x="370" y="1350" as="sourcePoint" />
            <mxPoint x="370" y="1300" as="targetPoint" />
          </mxGeometry>
        </mxCell>
        <mxCell id="0Qy8tqoMtrZZk6D1xudQ-34" value="stop" style="ellipse;whiteSpace=wrap;html=1;" vertex="1" parent="1">
          <mxGeometry x="310" y="1300" width="120" height="80" as="geometry" />
        </mxCell>
        <mxCell id="0Qy8tqoMtrZZk6D1xudQ-35" value="" style="endArrow=classic;html=1;rounded=0;entryX=1;entryY=0.5;entryDx=0;entryDy=0;" edge="1" parent="1" target="0Qy8tqoMtrZZk6D1xudQ-34">
          <mxGeometry width="50" height="50" relative="1" as="geometry">
            <mxPoint x="640" y="1340" as="sourcePoint" />
            <mxPoint x="540" y="1250" as="targetPoint" />
          </mxGeometry>
        </mxCell>
        <mxCell id="0Qy8tqoMtrZZk6D1xudQ-36" value="" style="endArrow=none;html=1;rounded=0;" edge="1" parent="1">
          <mxGeometry width="50" height="50" relative="1" as="geometry">
            <mxPoint x="640" y="1340" as="sourcePoint" />
            <mxPoint x="640" y="1250" as="targetPoint" />
          </mxGeometry>
        </mxCell>
        <mxCell id="0Qy8tqoMtrZZk6D1xudQ-37" value="" style="endArrow=none;html=1;rounded=0;entryX=0.5;entryY=1;entryDx=0;entryDy=0;" edge="1" parent="1" target="0Qy8tqoMtrZZk6D1xudQ-28">
          <mxGeometry width="50" height="50" relative="1" as="geometry">
            <mxPoint x="820" y="1340" as="sourcePoint" />
            <mxPoint x="820" y="1140" as="targetPoint" />
          </mxGeometry>
        </mxCell>
        <mxCell id="0Qy8tqoMtrZZk6D1xudQ-38" value="" style="endArrow=classic;html=1;rounded=0;" edge="1" parent="1">
          <mxGeometry width="50" height="50" relative="1" as="geometry">
            <mxPoint x="820" y="1340" as="sourcePoint" />
            <mxPoint x="640" y="1340" as="targetPoint" />
          </mxGeometry>
        </mxCell>
        <mxCell id="0Qy8tqoMtrZZk6D1xudQ-39" value="Finding the Maximum of the three Values" style="text;html=1;align=center;verticalAlign=middle;resizable=0;points=[];autosize=1;strokeColor=none;fillColor=none;" vertex="1" parent="1">
          <mxGeometry x="270" y="-80" width="240" height="30" as="geometry" />
        </mxCell>
      </root>
    </mxGraphModel>
  </diagram>
</mxfile>
